<svg xmlns="http://www.w3.org/2000/svg" viewBox="0 0 289 131.2"><title>logo</title><path d="M289,31V78L263,96H247V88l-12,8H221V88l-9,8H186l-8-8-2,8-22.95-.06L144,88l-1,8-26-.06L116,88l-7,7.94L69,96l-8-4v4H39L15,81,0,66V0H31L46,15h68V0h56V15h14v8l8-8h17L224,0h32V15h17ZM39,22H25V7H7V63L18,75H39V56H25V40H39Zm75,0H96V56H89V22H72V56H65V22H46V75h56l12-12Zm24,0H121V75h17Zm0-15H121v8h17Zm39,15H163V7H145V63l11,12h21V56H163V40h14Zm46,0H195L184,33V63l12,12h27V56H203V40h20Zm59,11L270,22H249V7H230V75h19V40h14V75h19Z" style="fill:#fff"/><path d="M1.24,117.71a14,14,0,0,1,.82-4.64,12.92,12.92,0,0,1,2.41-4.16,12.06,12.06,0,0,1,3.88-3,11.7,11.7,0,0,1,5.21-1.13,10.83,10.83,0,0,1,5.94,1.57,9.72,9.72,0,0,1,3.69,4.08l-2.59,1.68a7.45,7.45,0,0,0-1.41-2.08,7.1,7.1,0,0,0-1.78-1.35,8,8,0,0,0-2-.73,10,10,0,0,0-2-.22,7.94,7.94,0,0,0-3.81.89A8.81,8.81,0,0,0,6.82,111a10,10,0,0,0-1.69,3.24,12,12,0,0,0-.57,3.63,11.42,11.42,0,0,0,.67,3.88A10.74,10.74,0,0,0,7.11,125,9.13,9.13,0,0,0,10,127.26a7.77,7.77,0,0,0,3.58.84,8.48,8.48,0,0,0,2.09-.26,7.16,7.16,0,0,0,2.06-.82,8.18,8.18,0,0,0,1.84-1.42,7,7,0,0,0,1.41-2.06l2.73,1.5a8,8,0,0,1-1.73,2.57,11.19,11.19,0,0,1-2.52,1.88,12.73,12.73,0,0,1-3,1.16,12.14,12.14,0,0,1-3.06.4,10.43,10.43,0,0,1-4.88-1.16,13,13,0,0,1-3.85-3,14.22,14.22,0,0,1-3.41-9.13Z" style="fill:#fff"/><path d="M35.58,131.2a9.35,9.35,0,0,1-6.95-2.95,10,10,0,0,1-1.95-3.14,10.5,10.5,0,0,1,0-7.54,10.06,10.06,0,0,1,2-3.14,9.47,9.47,0,0,1,3-2.15,9.32,9.32,0,0,1,3.88-.8,9.39,9.39,0,0,1,6.94,3,9.88,9.88,0,0,1,2,3.14,10.5,10.5,0,0,1,0,7.54,9.54,9.54,0,0,1-2,3.14,9.74,9.74,0,0,1-3,2.15A9.47,9.47,0,0,1,35.58,131.2Zm-6.31-9.81a7.79,7.79,0,0,0,.49,2.77,7.15,7.15,0,0,0,1.35,2.23,6.27,6.27,0,0,0,2,1.49,5.54,5.54,0,0,0,2.46.55,5.6,5.6,0,0,0,2.46-.55,6.45,6.45,0,0,0,2-1.51,7.16,7.16,0,0,0,1.37-2.26,7.72,7.72,0,0,0,.49-2.79,7.62,7.62,0,0,0-.49-2.75,7.16,7.16,0,0,0-1.37-2.26,6.45,6.45,0,0,0-2-1.51,5.73,5.73,0,0,0-4.92,0,6.42,6.42,0,0,0-2,1.54,7.19,7.19,0,0,0-1.35,2.26A7.93,7.93,0,0,0,29.27,121.39Z" style="fill:#fff"/><path d="M65.61,130.83H62.4V120.19a8.22,8.22,0,0,0-.93-4.45,3.17,3.17,0,0,0-2.82-1.38,5.51,5.51,0,0,0-2,.38,8.15,8.15,0,0,0-1.86,1,7.36,7.36,0,0,0-1.53,1.57,6.65,6.65,0,0,0-1,2v11.48H49.1v-19H52v4.08a8.32,8.32,0,0,1,3.26-3.21,9.3,9.3,0,0,1,4.64-1.2,5.64,5.64,0,0,1,2.74.6,4.63,4.63,0,0,1,1.75,1.68,7.38,7.38,0,0,1,.93,2.53,17.42,17.42,0,0,1,.27,3.17Z" style="fill:#fff"/><path d="M80.26,129.89l-.76.34c-.32.14-.68.27-1.08.4a8.09,8.09,0,0,1-1.31.33,7.84,7.84,0,0,1-1.48.13,4.83,4.83,0,0,1-3-1,3.51,3.51,0,0,1-1.28-3v-12.8H68.75v-2.51h2.58v-6.34h3.21v6.34h4.27v2.51H74.54v11.81a2,2,0,0,0,.69,1.53,2.33,2.33,0,0,0,1.46.48,4.8,4.8,0,0,0,1.73-.31,7.33,7.33,0,0,0,1.08-.5Z" style="fill:#fff"/><path d="M91.42,131.2a9.56,9.56,0,0,1-3.94-.79,9.25,9.25,0,0,1-3.06-2.13,9.87,9.87,0,0,1-2-3.15,10.36,10.36,0,0,1-.71-3.81,10.21,10.21,0,0,1,.71-3.79,9.5,9.5,0,0,1,2-3.13,9.5,9.5,0,0,1,7-2.92,9.44,9.44,0,0,1,3.92.8,9.16,9.16,0,0,1,4.92,5.23,10.21,10.21,0,0,1,.68,3.67c0,.26,0,.51,0,.72a2.74,2.74,0,0,1-.06.51H85.11a7.22,7.22,0,0,0,.66,2.59,6.64,6.64,0,0,0,1.42,2,6.49,6.49,0,0,0,2,1.31,5.84,5.84,0,0,0,2.35.47,6.59,6.59,0,0,0,1.71-.23,7.49,7.49,0,0,0,1.57-.64,5.68,5.68,0,0,0,1.29-1,3.92,3.92,0,0,0,.86-1.31l2.77.77a7,7,0,0,1-1.3,1.93,8.48,8.48,0,0,1-1.89,1.51,9.48,9.48,0,0,1-2.39,1A9.89,9.89,0,0,1,91.42,131.2Zm6.52-11.15a6.91,6.91,0,0,0-.67-2.5,6.63,6.63,0,0,0-1.42-2,6.35,6.35,0,0,0-2-1.26,6.65,6.65,0,0,0-4.81,0,6,6,0,0,0-2,1.28,6.26,6.26,0,0,0-1.38,1.95,6.93,6.93,0,0,0-.64,2.48Z" style="fill:#fff"/><path d="M121.05,130.83h-3.21V120.19a8.22,8.22,0,0,0-.93-4.45,3.17,3.17,0,0,0-2.82-1.38,5.47,5.47,0,0,0-2,.38,7.75,7.75,0,0,0-1.86,1,7.36,7.36,0,0,0-1.53,1.57,6.42,6.42,0,0,0-1,2v11.48h-3.21v-19h2.91v4.08a8.35,8.35,0,0,1,3.27-3.21,9.3,9.3,0,0,1,4.64-1.2,5.64,5.64,0,0,1,2.74.6,4.63,4.63,0,0,1,1.75,1.68,7.82,7.82,0,0,1,.93,2.53,17.42,17.42,0,0,1,.27,3.17Z" style="fill:#fff"/><path d="M135.7,129.89c-.19.09-.45.21-.77.34a10.62,10.62,0,0,1-1.07.4,8.09,8.09,0,0,1-1.31.33,7.91,7.91,0,0,1-1.48.13,4.83,4.83,0,0,1-3-1,3.51,3.51,0,0,1-1.28-3v-12.8h-2.59v-2.51h2.59v-6.34H130v6.34h4.26v2.51H130v11.81a2,2,0,0,0,.69,1.53,2.31,2.31,0,0,0,1.46.48,4.8,4.8,0,0,0,1.73-.31,6.62,6.62,0,0,0,1.07-.5Z" style="fill:#fff"/><path d="M146.74,117.71a14,14,0,0,1,.82-4.64,12.92,12.92,0,0,1,2.41-4.16,12.06,12.06,0,0,1,3.88-3,11.7,11.7,0,0,1,5.21-1.13,10.83,10.83,0,0,1,5.94,1.57,9.72,9.72,0,0,1,3.69,4.08l-2.59,1.68a7.45,7.45,0,0,0-1.41-2.08,7.1,7.1,0,0,0-1.78-1.35,8,8,0,0,0-2-.73,10,10,0,0,0-2-.22,7.94,7.94,0,0,0-3.81.89,8.81,8.81,0,0,0-2.79,2.34,10,10,0,0,0-1.69,3.24,12,12,0,0,0-.57,3.63,11,11,0,0,0,.68,3.88,10.51,10.51,0,0,0,1.87,3.26,9.06,9.06,0,0,0,2.85,2.26,7.7,7.7,0,0,0,3.57.84,8.48,8.48,0,0,0,2.09-.26,7.16,7.16,0,0,0,2.06-.82A8.18,8.18,0,0,0,165,125.6a7,7,0,0,0,1.41-2.06l2.73,1.5a8,8,0,0,1-1.73,2.57,11.19,11.19,0,0,1-2.52,1.88,12.73,12.73,0,0,1-3,1.16,12.14,12.14,0,0,1-3.06.4,10.43,10.43,0,0,1-4.88-1.16,13,13,0,0,1-3.85-3,14.22,14.22,0,0,1-3.41-9.13Z" style="fill:#fff"/><path d="M182.83,114.61a8.33,8.33,0,0,0-4.25,1.24A6.37,6.37,0,0,0,176,119.1v11.73h-3.2v-19h3v4.41a9,9,0,0,1,2.58-3.19,6.44,6.44,0,0,1,3.43-1.37h.62a1.89,1.89,0,0,1,.44,0Z" style="fill:#fff"/><path d="M194,131.2a9.63,9.63,0,0,1-3.94-.79,9.25,9.25,0,0,1-3.06-2.13,9.67,9.67,0,0,1-2-3.15,10.16,10.16,0,0,1-.71-3.81,10,10,0,0,1,.71-3.79,9.47,9.47,0,0,1,2-3.13,9.62,9.62,0,0,1,3.08-2.14,9.72,9.72,0,0,1,3.94-.78,9.26,9.26,0,0,1,8.84,6,10.2,10.2,0,0,1,.67,3.67c0,.26,0,.51,0,.72a4.35,4.35,0,0,1,0,.51H187.68a7.42,7.42,0,0,0,.65,2.59,6.82,6.82,0,0,0,1.42,2,6.74,6.74,0,0,0,2,1.31,5.84,5.84,0,0,0,2.35.47,6.59,6.59,0,0,0,1.71-.23,7.28,7.28,0,0,0,1.57-.64,5.52,5.52,0,0,0,1.3-1,3.89,3.89,0,0,0,.85-1.31l2.77.77a7,7,0,0,1-1.29,1.93,8.54,8.54,0,0,1-1.9,1.51,9.41,9.41,0,0,1-2.38,1A10,10,0,0,1,194,131.2Zm6.53-11.15a6.92,6.92,0,0,0-.68-2.5,6.63,6.63,0,0,0-1.42-2,6.13,6.13,0,0,0-2-1.26,6.65,6.65,0,0,0-4.81,0,6.33,6.33,0,0,0-3.37,3.23,7.37,7.37,0,0,0-.64,2.48Z" style="fill:#fff"/><path d="M212,131.2a6.76,6.76,0,0,1-2.52-.46,6.2,6.2,0,0,1-2-1.25,6.13,6.13,0,0,1-1.35-1.88,5.56,5.56,0,0,1-.49-2.35,4.91,4.91,0,0,1,.58-2.39,5.38,5.38,0,0,1,1.66-1.84,8.59,8.59,0,0,1,2.55-1.2,11,11,0,0,1,3.23-.44,15.83,15.83,0,0,1,2.8.25,13.06,13.06,0,0,1,2.52.7v-1.53a4.6,4.6,0,0,0-5-5,10.59,10.59,0,0,0-6,2.23L206.81,114a13.17,13.17,0,0,1,7.4-2.48,8.15,8.15,0,0,1,5.85,2,7.44,7.44,0,0,1,2.09,5.65v7.77c0,.75.35,1.14,1,1.16v2.77l-.83.11a5.18,5.18,0,0,1-.7,0,2,2,0,0,1-1.51-.57,2.32,2.32,0,0,1-.67-1.36l-.08-1.35a8.17,8.17,0,0,1-3.22,2.6A9.83,9.83,0,0,1,212,131.2Zm.83-2.41a8,8,0,0,0,3.19-.63,5.22,5.22,0,0,0,2.24-1.7A2,2,0,0,0,219,125v-2.81a13.17,13.17,0,0,0-4.85-.91,6.9,6.9,0,0,0-3.92,1,3.09,3.09,0,0,0-1.51,2.66,3.58,3.58,0,0,0,1.18,2.7,4.14,4.14,0,0,0,1.33.8A4.46,4.46,0,0,0,212.82,128.79Z" style="fill:#fff"/><path d="M237,129.89c-.2.09-.45.21-.77.34a10.62,10.62,0,0,1-1.07.4,8.09,8.09,0,0,1-1.31.33,8,8,0,0,1-1.48.13,4.84,4.84,0,0,1-3-1,3.51,3.51,0,0,1-1.27-3v-12.8h-2.59v-2.51h2.59v-6.34h3.21v6.34h4.26v2.51h-4.26v11.81a2,2,0,0,0,.69,1.53,2.31,2.31,0,0,0,1.46.48,4.84,4.84,0,0,0,1.73-.31,6.62,6.62,0,0,0,1.07-.5Z" style="fill:#fff"/><path d="M248,131.2a9.3,9.3,0,0,1-6.94-2.95,9.66,9.66,0,0,1-2-3.14,10.31,10.31,0,0,1-.69-3.75,10,10,0,0,1,.71-3.79,9.88,9.88,0,0,1,2-3.14,9.3,9.3,0,0,1,6.9-3,9.43,9.43,0,0,1,6.95,3,9.86,9.86,0,0,1,2,3.14,10,10,0,0,1,.72,3.79,10.32,10.32,0,0,1-.7,3.75,9.38,9.38,0,0,1-2,3.14,9.63,9.63,0,0,1-3,2.15A9.44,9.44,0,0,1,248,131.2Zm-6.3-9.81a7.57,7.57,0,0,0,.49,2.77,7.15,7.15,0,0,0,1.35,2.23,6.34,6.34,0,0,0,2,1.49,5.6,5.6,0,0,0,2.46.55,5.54,5.54,0,0,0,2.46-.55,6.49,6.49,0,0,0,2-1.51,7.14,7.14,0,0,0,1.36-2.26,7.72,7.72,0,0,0,.5-2.79,7.63,7.63,0,0,0-.5-2.75,7.14,7.14,0,0,0-1.36-2.26,6.49,6.49,0,0,0-2-1.51,5.54,5.54,0,0,0-2.46-.55,5.61,5.61,0,0,0-2.46.56,6.5,6.5,0,0,0-2,1.54,7.19,7.19,0,0,0-1.35,2.26A7.7,7.7,0,0,0,241.73,121.39Z" style="fill:#fff"/><path d="M271.61,114.61a8.33,8.33,0,0,0-4.24,1.24,6.32,6.32,0,0,0-2.61,3.25v11.73h-3.2v-19h3v4.41a9,9,0,0,1,2.59-3.19,6.41,6.41,0,0,1,3.43-1.37h.62a1.8,1.8,0,0,1,.43,0Z" style="fill:#fff"/><path d="M281.46,131.2a14.93,14.93,0,0,1-4.53-.71,11.22,11.22,0,0,1-3.82-2.06l1.38-2.15a13.37,13.37,0,0,0,3.36,1.91,9.7,9.7,0,0,0,3.53.64,5.8,5.8,0,0,0,3.3-.82,2.65,2.65,0,0,0,1.22-2.32,2.07,2.07,0,0,0-.33-1.18,2.79,2.79,0,0,0-1-.86,8.08,8.08,0,0,0-1.68-.65c-.68-.2-1.47-.4-2.37-.62-1.14-.29-2.12-.57-3-.84a7.92,7.92,0,0,1-2-1,3.39,3.39,0,0,1-1.17-1.31,4.44,4.44,0,0,1-.36-1.9,5.6,5.6,0,0,1,.56-2.53,5.48,5.48,0,0,1,1.55-1.86,7.07,7.07,0,0,1,2.32-1.13,10.46,10.46,0,0,1,2.86-.38,11.45,11.45,0,0,1,4,.69,9.68,9.68,0,0,1,3.13,1.83L287,115.93a8.23,8.23,0,0,0-2.7-1.59,9.21,9.21,0,0,0-3.06-.53,5.55,5.55,0,0,0-3,.75A2.58,2.58,0,0,0,277,117a2.25,2.25,0,0,0,.24,1.09,2.09,2.09,0,0,0,.79.77,6.5,6.5,0,0,0,1.4.58c.57.17,1.26.35,2.06.55,1.26.29,2.36.59,3.3.89a9.55,9.55,0,0,1,2.33,1.07,3.87,3.87,0,0,1,1.84,3.5,5,5,0,0,1-2,4.23A8.79,8.79,0,0,1,281.46,131.2Z" style="fill:#fff"/></svg>