<?xml version="1.0" encoding="utf-8"?>
<!-- Generator: Adobe Illustrator 22.1.0, SVG Export Plug-In . SVG Version: 6.00 Build 0)  -->
<svg version="1.1" id="Layer_1" xmlns="http://www.w3.org/2000/svg" xmlns:xlink="http://www.w3.org/1999/xlink" x="0px" y="0px"
	 viewBox="0 0 173.1 47.2" style="enable-background:new 0 0 173.1 47.2;" xml:space="preserve">
<style type="text/css">
	.st0{display:none;fill:#333333;}
	.st1{display:none;fill:#4B237A;}
	.st2{display:none;fill:#1A1A1A;}
	.st3{fill:#EE2A7B;}
	.st4{fill:#7F3F98;}
	.st5{fill:#00AEEF;}
	.st6{fill:#FF4200;}
	.st7{fill:#FF9803;}
	.st8{fill:#FF6D00;}
	.st9{fill:#FFFFFF;}
</style>
<rect x="-25" y="-26.2" class="st2" width="227" height="100"/>
<g>
	<path class="st9" d="M41.7,37.3c-4.3,4.8-10.9,9-19.3,9C9,46.2,0,37.6,0,23.4C0,8.8,11,0,19.3,0c6.4,0,9.2,3.6,9.8,4.3l1.5-3.6h10
		v18.1H29.2c-0.2-4.1-2.2-8-6.7-8c-4.6,0-7.6,5.7-7.6,12.6c0,6.3,3.2,12,9.3,12c5.3,0,9.5-5.6,10.1-6.2L41.7,37.3z"/>
	<path class="st9" d="M44.9,16.1c2.5-1.5,8-4.5,13.9-4.5c7.6,0,17.2,2.9,17.2,13.1v12.4h3.8v8.1H66.2l-1.5-2.9
		c-2.4,3.2-6.3,4.1-8.6,4.1c-6,0-12.5-3.2-12.5-10.6c0-7.2,6-11.7,13.2-11.7c3.8,0,6,1.8,6.3,2.2v-2.2c0-2.9-2.6-3.6-6-3.6
		c-3.8,0-7.1,1.6-9.5,2.9L44.9,16.1z M63.1,33.6c-0.2-0.3-1.1-1.8-3.8-1.8c-2.5,0-3.7,1.4-3.7,3.4c0,1.8,1.5,3,3.4,3
		c1.9,0,3.5-1.1,4.1-2.1V33.6z"/>
	<path class="st9" d="M85.2,13.4V7.6l11.7-3.8v9.6h6v8.3h-6V33c0,2.2-0.4,5.1,2,5.1c0.8,0,2.8-0.6,4-1.1v8.1
		c-1.9,0.8-6.2,1.2-7.7,1.2c-9.5,0-9.9-5.2-10-13.3V21.7h-3.4v-8.3H85.2z"/>
	<path class="st9" d="M104.8,33.8h8.5c0,3.4,4.8,4.3,6.7,4.3c1.3,0,2.8-0.4,2.8-2.2c0-1.9-4.8-2.2-9.3-3.8
		c-4.3-1.5-8.5-4.2-8.5-10.2c0-6.5,6.7-9.2,11.2-9.2c4.3,0,8.1,2.2,9.5,5l0.5-4.2h7.8v11.4h-8.3c0-2.7-3.3-4.8-6.5-4.8
		c-1.3,0-2.5,0.7-2.5,2.3c0,1.8,3.8,2.5,7.8,3.9c4.8,1.7,10.2,3.5,10.2,10.2c0,6-5.7,9.5-11.8,9.5c-4.6,0-8.2-2.2-9.7-4.6l-0.6,3.9
		h-7.9V33.8z"/>
	<path class="st9" d="M173.1,34.3h-12.9v12.9h-8.5V34.3h-12.9v-8.5h12.9V12.9h8.5v12.9h12.9V34.3z"/>
</g>
</svg>
