<?xml version="1.0" encoding="utf-8"?>
<!-- Generator: Adobe Illustrator 22.1.0, SVG Export Plug-In . SVG Version: 6.00 Build 0)  -->
<svg version="1.1" id="Layer_1" xmlns="http://www.w3.org/2000/svg" xmlns:xlink="http://www.w3.org/1999/xlink" x="0px" y="0px"
	 viewBox="0 0 183 53.3" style="enable-background:new 0 0 183 53.3;" xml:space="preserve">
<style type="text/css">
	.st0{display:none;fill:#333333;}
	.st1{display:none;fill:#4B237A;}
	.st2{display:none;fill:#1A1A1A;}
	.st3{fill:#EE2A7B;}
	.st4{fill:#7F3F98;}
	.st5{fill:#00AEEF;}
	.st6{fill:#FF4200;}
	.st7{fill:#FF9803;}
	.st8{fill:#FF6D00;}
	.st9{fill:#FFFFFF;}
</style>
<rect x="-28" y="-21" class="st0" width="240.5" height="98.2"/>
<g>
	<g>
		<polygon class="st6" points="40.6,40.6 40.3,40.6 40.3,40.3 40,40.3 40,40 39.6,40 39.6,39.6 39.3,39.6 39.3,39.3 39,39.3 39,39 
			38.7,39 38.7,38.7 38.4,38.7 38.4,38.4 38,38.4 38,38 37.7,38 37.7,37.7 37.4,37.7 37.4,37.4 16.2,37.4 16.2,16.2 15.9,15.9 
			15.6,15.6 15.3,15.3 14.9,14.9 14.6,14.6 14.3,14.3 14.3,14.3 14,14 1.9,1.9 1.6,1.6 1.6,1.6 1.3,1.3 1,1 0.6,0.6 0.3,0.3 
			0.3,43.6 6.5,49.7 6.5,49.7 6.8,50.1 6.8,50.1 7.1,50.4 7.1,50.4 7.5,50.7 7.5,50.7 8.4,51.7 8.4,51.7 8.8,52 8.8,52 9.1,52.3 
			9.1,52.3 9.4,52.6 9.4,52.6 9.7,53 9.7,53 10.1,53.3 40.9,53.3 40.9,40.9 40.6,40.9 		"/>
		<polygon class="st6" points="59.1,22.1 58.8,22.1 58.8,21.8 58.5,21.8 58.5,21.4 58.2,21.4 58.2,21.1 57.9,21.1 57.9,20.8 
			57.5,20.8 57.5,20.5 57.2,20.5 57.2,20.1 56.9,20.1 56.9,19.8 56.6,19.8 56.6,19.5 56.2,19.5 56.2,19.2 55.9,19.2 55.9,18.9 
			18.9,18.9 18.9,31.2 19.2,31.2 19.2,31.5 19.5,31.5 19.5,31.9 19.8,31.9 19.8,32.2 20.1,32.2 20.1,32.5 20.5,32.5 20.5,32.8 
			20.8,32.8 20.8,33.1 21.1,33.1 21.1,33.5 21.4,33.5 21.4,33.8 21.8,33.8 21.8,34.1 22.1,34.1 22.1,34.4 22.4,34.4 22.4,34.8 
			43.6,34.8 43.6,49.7 43.9,49.7 43.9,50.1 44.2,50.1 44.2,50.4 44.5,50.4 44.5,50.7 44.9,50.7 44.9,51 45.2,51 45.2,51.4 
			45.5,51.4 45.5,51.7 45.8,51.7 45.8,52 46.1,52 46.1,52.3 46.5,52.3 46.5,52.6 46.8,52.6 46.8,53 47.1,53 47.1,53.3 59.5,53.3 
			59.5,22.4 59.1,22.4 		"/>
		<polygon class="st6" points="59.1,3.6 58.8,3.6 58.8,3.2 58.5,3.2 58.5,2.9 58.2,2.9 58.2,2.6 57.9,2.6 57.9,2.3 57.5,2.3 
			57.5,1.9 57.2,1.9 57.2,1.6 56.9,1.6 56.9,1.3 56.6,1.3 56.6,1 56.2,1 56.2,0.6 55.9,0.6 55.9,0.3 6.5,0.3 18.9,12.7 18.9,12.7 
			19.2,13 19.2,13 19.5,13.3 19.5,13.3 19.8,13.6 19.8,13.6 20.8,14.6 20.8,14.6 21.1,14.9 21.1,14.9 21.4,15.3 21.4,15.3 
			21.8,15.6 21.8,15.6 22.1,15.9 22.1,15.9 22.4,16.2 59.5,16.2 59.5,3.9 59.1,3.9 		"/>
		<polygon class="st6" points="99.3,22.1 99,22.1 99,21.8 98.6,21.8 98.6,21.4 98.3,21.4 98.3,21.1 98,21.1 98,20.8 97.7,20.8 
			97.7,20.5 97.3,20.5 97.3,20.1 97,20.1 97,19.8 96.7,19.8 96.7,19.5 96.4,19.5 96.4,19.2 96,19.2 96,18.9 83.7,18.9 83.7,49.7 
			84,49.7 84,50.1 84.3,50.1 84.3,50.4 84.7,50.4 84.7,50.7 85,50.7 85,51 85.3,51 85.3,51.4 85.6,51.4 85.6,51.7 86,51.7 86,52 
			86.3,52 86.3,52.3 86.6,52.3 86.6,52.6 86.9,52.6 86.9,53 87.3,53 87.3,53.3 99.6,53.3 99.6,22.4 99.3,22.4 		"/>
		<polygon class="st6" points="120.6,15.6 120.3,15.3 119.9,14.9 119.6,14.6 119.3,14.3 119.3,14.3 119,14 106.9,1.9 106.6,1.6 
			106.6,1.6 106.3,1.3 106,1 105.6,0.6 105.3,0.3 62.1,0.3 62.1,12.7 62.4,12.7 62.4,13 62.7,13 62.7,13.3 63.1,13.3 63.1,13.6 
			63.4,13.6 63.4,14 63.7,14 63.7,14.3 64,14.3 64,14.6 64.4,14.6 64.4,14.9 64.7,14.9 64.7,15.3 65,15.3 65,15.6 65.3,15.6 
			65.3,15.9 65.6,15.9 65.6,16.2 70.9,16.2 62.1,25 62.1,49.7 62.4,49.7 62.4,50.1 62.7,50.1 62.7,50.4 63.1,50.4 63.1,50.7 
			63.4,50.7 63.4,51 63.7,51 63.7,51.4 64,51.4 64,51.7 64.4,51.7 64.4,52 64.7,52 64.7,52.3 65,52.3 65,52.6 65.3,52.6 65.3,53 
			65.6,53 65.6,53.3 78,53.3 78,16.2 77.7,16.6 77.7,16.2 78,16.2 105.3,16.2 105.3,49.7 105.6,49.7 105.6,50.1 106,50.1 106,50.4 
			106.3,50.4 106.3,50.7 106.6,50.7 106.6,51 106.9,51 106.9,51.4 107.3,51.4 107.3,51.7 107.6,51.7 107.6,52 107.9,52 107.9,52.3 
			108.2,52.3 108.2,52.6 108.6,52.6 108.6,53 108.9,53 108.9,53.3 121.2,53.3 121.2,16.2 120.9,15.9 		"/>
		<polygon class="st6" points="183,3.9 182.7,3.9 182.7,3.6 182.3,3.6 182.3,3.2 182,3.2 182,2.9 181.7,2.9 181.7,2.6 181.4,2.6 
			181.4,2.3 181,2.3 181,1.9 180.7,1.9 180.7,1.6 180.4,1.6 180.4,1.3 180.1,1.3 180.1,1 179.7,1 179.7,0.6 179.4,0.6 179.4,0.3 
			123.8,0.3 123.8,12.7 124.2,12.7 124.2,13 124.5,13 124.5,13.3 124.8,13.3 124.8,13.6 125.1,13.6 125.1,14 125.5,14 125.5,14.3 
			125.8,14.3 125.8,14.6 126.1,14.6 126.1,14.9 126.4,14.9 126.4,15.3 126.8,15.3 126.8,15.6 127.1,15.6 127.1,15.9 127.4,15.9 
			127.4,16.2 132.6,16.2 123.8,25 123.8,43.6 130,49.7 130,49.7 130.3,50.1 130.3,50.1 130.7,50.4 130.7,50.4 131,50.7 131,50.7 
			131.3,51 131.3,51 132,51.7 132,51.7 132.3,52 132.3,52 132.6,52.3 132.6,52.3 132.9,52.6 132.9,52.6 133.3,53 133.3,53 
			133.6,53.3 183,53.3 183,40.9 182.7,40.9 182.7,40.6 182.3,40.6 182.3,40.3 182,40.3 182,40 181.7,40 181.7,39.6 181.4,39.6 
			181.4,39.3 181,39.3 181,39 180.7,39 180.7,38.7 180.4,38.7 180.4,38.4 180.1,38.4 180.1,38 179.7,38 179.7,37.7 179.4,37.7 
			179.4,37.4 139.8,37.4 139.8,16.2 139.4,16.6 139.4,16.2 139.8,16.2 183,16.2 		"/>
		<polygon class="st6" points="176.8,34.8 176.8,22.4 176.5,22.4 176.5,22.1 176.2,22.1 176.2,21.8 175.8,21.8 175.8,21.4 
			175.5,21.4 175.5,21.1 175.2,21.1 175.2,20.8 174.9,20.8 174.9,20.5 174.5,20.5 174.5,20.1 174.2,20.1 174.2,19.8 173.9,19.8 
			173.9,19.5 173.6,19.5 173.6,19.2 173.2,19.2 173.2,18.9 142.4,18.9 142.4,31.2 142.7,31.2 142.7,31.5 143,31.5 143,31.9 
			143.3,31.9 143.3,32.2 143.7,32.2 143.7,32.5 144,32.5 144,32.8 144.3,32.8 144.3,33.1 144.6,33.1 144.6,33.5 145,33.5 145,33.8 
			145.3,33.8 145.3,34.1 145.6,34.1 145.6,34.4 145.9,34.4 145.9,34.8 		"/>
	</g>
	<polygon class="st7" points="55.6,0 59.5,3.9 59.5,16.2 55.6,12.4 	"/>
	<polygon class="st7" points="55.6,18.5 59.5,22.4 59.5,53.3 55.6,49.4 	"/>
	<polygon class="st7" points="12.4,12.4 16.2,16.2 16.2,37.4 12.4,37.1 	"/>
	<polygon class="st7" points="37.1,37.1 40.9,40.9 40.9,53.3 37.1,49.4 	"/>
	<polygon class="st7" points="74.1,12.4 78,16.2 78,53.3 74.1,49.4 	"/>
	<polygon class="st7" points="95.7,18.5 99.6,22.4 99.6,53.3 95.7,49.4 	"/>
	<polygon class="st7" points="117.3,12.4 121.2,16.2 121.2,53.3 117.3,49.4 	"/>
	<polygon class="st7" points="179.1,0 183,3.9 183,16.2 179.1,12.4 	"/>
	<polygon class="st7" points="135.9,12.4 139.8,16.2 139.8,37.4 135.9,37.1 	"/>
	<polygon class="st7" points="172.9,18.5 176.8,22.4 176.8,34.8 172.9,30.9 	"/>
	<polygon class="st7" points="179.1,37.1 183,40.9 183,53.3 179.1,49.4 	"/>
	<g>
		<path class="st8" d="M6.2,49.4L0,43.2V0l12.4,12.4v24.7h24.7v12.4H6.2z M18.5,12.4L6.2,0h49.4v12.4H18.5z M43.2,49.4V30.9H18.5
			V18.5h37.1v30.9H43.2z"/>
		<path class="st8" d="M105,49.4V12.4H61.8V0H105l12.4,12.4v37.1H105z M61.8,49.4V24.7l12.4-12.4v37.1H61.8z M83.4,49.4V18.5h12.4
			v30.9H83.4z"/>
		<path class="st8" d="M123.5,12.4V0h55.6v12.4H123.5z M129.7,49.4l-6.2-6.2V24.7l12.4-12.4v24.7h43.2v12.4H129.7z M142,30.9V18.5
			h30.9v12.4H142z"/>
	</g>
</g>
</svg>
