<?xml version="1.0" encoding="utf-8"?>
<!-- Generator: Adobe Illustrator 22.1.0, SVG Export Plug-In . SVG Version: 6.00 Build 0)  -->
<svg version="1.1" id="Layer_1" xmlns="http://www.w3.org/2000/svg" xmlns:xlink="http://www.w3.org/1999/xlink" x="0px" y="0px"
	 viewBox="0 0 156.4 117.8" style="enable-background:new 0 0 156.4 117.8;" xml:space="preserve">
<style type="text/css">
	.st0{fill:#EE2A7B;}
	.st1{fill:#7F3F98;}
	.st2{fill:#00AEEF;}
	.st3{fill:#FF4200;}
	.st4{fill:#FF9803;}
	.st5{fill:#FF6D00;}
	.st6{fill:#FFFFFF;}
</style>
<path class="st6" d="M149.9,84.7h-9.6c-1.5-27-20.3-49.4-45.5-56.4V20h36.1c1.5,5.5,6.6,9.5,12.5,9.5c7.2,0,13-5.8,13-13
	c0-7.2-5.8-13-13-13c-6,0-11,4-12.5,9.5H94.7V3.5c0-1.9-1.6-3.5-3.5-3.5H65.2c-1.9,0-3.5,1.6-3.5,3.5V13H25.6
	C24.1,7.5,19,3.5,13,3.5c-7.2,0-13,5.8-13,13c0,7.2,5.8,13,13,13c6,0,11-4,12.5-9.5h36.1v8.3c-25.2,7-44,29.4-45.5,56.4H6.5
	c-1.9,0-3.5,1.6-3.5,3.5v26.1c0,1.9,1.6,3.5,3.5,3.5h26.1c1.9,0,3.5-1.6,3.5-3.5V88.2c0-1.9-1.6-3.5-3.5-3.5h-9.4
	C25,55.9,49,33.1,78.2,33.1c29.2,0,53.2,22.9,55,51.7h-9.4c-1.9,0-3.5,1.6-3.5,3.5v26.1c0,1.9,1.6,3.5,3.5,3.5h26.1
	c1.9,0,3.5-1.6,3.5-3.5V88.2C153.4,86.3,151.8,84.7,149.9,84.7z M29.1,110.8H10V91.7h19.1V110.8z M68.7,26.1V7h19.1v19.1H68.7z
	 M146.4,110.8h-19.1V91.7h19.1V110.8z"/>
</svg>
