<?xml version="1.0" encoding="utf-8"?>
<!-- Generator: Adobe Illustrator 22.1.0, SVG Export Plug-In . SVG Version: 6.00 Build 0)  -->
<svg version="1.1" id="Layer_1" xmlns="http://www.w3.org/2000/svg" xmlns:xlink="http://www.w3.org/1999/xlink" x="0px" y="0px"
	 viewBox="0 0 123.9 123.9" style="enable-background:new 0 0 123.9 123.9;" xml:space="preserve">
<style type="text/css">
	.st0{fill:#EE2A7B;}
	.st1{fill:#7F3F98;}
	.st2{fill:#00AEEF;}
	.st3{fill:#FF4200;}
	.st4{fill:#FF9803;}
	.st5{fill:#FF6D00;}
	.st6{fill:#FFFFFF;}
</style>
<path class="st6" d="M120.2,8.4l-4.7-4.7c-2.4-2.4-5.6-3.7-9-3.7c-3.4,0-6.6,1.3-9,3.7l-8.4,8.4c0,0-0.1,0.1-0.1,0.2L16.5,84.8
	c-0.1,0.1-0.2,0.2-0.3,0.3c-0.2,0.2-0.3,0.3-0.4,0.5c-0.1,0.2-0.2,0.3-0.3,0.5c0,0-15.1,32.2-15.1,32.2c-0.7,1.5-0.4,3.3,0.8,4.5
	c0.8,0.7,1.7,1.1,2.8,1.1c0.6,0,1.2-0.1,1.7-0.4l32-15c0,0,0.1-0.1,0.2-0.1c0.2-0.1,0.3-0.2,0.5-0.3c0.2-0.1,0.4-0.3,0.6-0.5
	l81.3-81.3C125.1,21.4,125.1,13.3,120.2,8.4z M7,116.9l2.8-5.9l3.1,3.1L7,116.9z M16.6,112.4l-5.1-5.1l7.1-15.1l13.1,13.1
	L16.6,112.4z M35,103.1L20.7,88.8l65.4-65.5l14.3,14.3L35,103.1z M103.2,34.9L89,20.6l1.8-1.8l14.3,14.3L103.2,34.9z M115,23.2
	l-7,7.1L93.6,16l7.1-7.1c2.6-2.6,7.1-2.6,9.6,0l4.6,4.7C117.6,16.2,117.6,20.6,115,23.2z M32.1,83.2l2.8,2.8l53.5-53.5l-2.8-2.8
	L32.1,83.2z M49.5,77.6l2.8,2.8l33.4-33.4l-2.8-2.8L49.5,77.6z"/>
</svg>
