<?xml version="1.0" encoding="utf-8"?>
<!-- Generator: Adobe Illustrator 22.1.0, SVG Export Plug-In . SVG Version: 6.00 Build 0)  -->
<svg version="1.1" id="Layer_1" xmlns="http://www.w3.org/2000/svg" xmlns:xlink="http://www.w3.org/1999/xlink" x="0px" y="0px"
	 viewBox="0 0 179.1 93" style="enable-background:new 0 0 179.1 93;" xml:space="preserve">
<style type="text/css">
	.st0{fill:#EE2A7B;}
	.st1{fill:#7F3F98;}
	.st2{fill:#00AEEF;}
	.st3{fill:#FF4200;}
	.st4{fill:#FF9803;}
	.st5{fill:#FF6D00;}
	.st6{fill:#FFFFFF;}
</style>
<g>
	<path class="st6" d="M0.8,43l0.7-1.2c0-0.2,0.1-0.3,0.3-0.3c0.2-0.4,0.4-0.7,0.8-0.9L40.2,2.4C41.9,0.8,43.9,0,46.3,0
		c2.4,0,4.4,0.8,6,2.5c1.7,1.7,2.5,3.6,2.5,6c0,2.3-0.8,4.3-2.5,6l-31.8,32l31.8,32c1.7,1.8,2.5,3.8,2.5,6.1c0,2.3-0.8,4.3-2.5,6
		c-1.8,1.6-3.8,2.4-6,2.4c-2.2,0-4.2-0.8-6-2.4L2.5,52.4c-0.3-0.1-0.5-0.4-0.7-0.8c-0.4-0.3-0.6-0.7-0.8-1.3
		c-0.3-0.1-0.4-0.3-0.4-0.6c0-0.3-0.1-0.6-0.3-0.7c0-0.2-0.1-0.4-0.3-0.7v-0.9L0,46.5l0.1-0.7v-0.9l0.4-1.1c0-0.4,0-0.7,0.1-0.7
		C0.8,43.1,0.8,43.1,0.8,43z"/>
	<path class="st6" d="M80,88.6c-1.3,2.9-3.4,4.4-6.4,4.4c-3,0-5.2-1.1-6.6-3.4c-1.3-2.2-1.5-4.5-0.5-6.8L99.3,4.7
		c0.8-1.9,2.1-3.2,4-4c1.9-0.8,3.8-0.8,5.6,0c1.9,0.8,3.2,2.1,4,4c0.8,1.9,0.7,3.8-0.1,5.6L80,88.6z"/>
	<path class="st6" d="M179,48.2c-0.4,0.9-0.7,1.5-0.7,1.9l-0.7,1.2c0,0.1,0,0.1-0.1,0.1l-38.6,39.1c-1.6,1.6-3.6,2.4-5.9,2.4
		c-2.3,0-4.4-0.8-6.2-2.4c-1.7-1.7-2.5-3.7-2.5-6c0-2.3,0.8-4.3,2.5-6.1l31.8-32l-31.8-32c-1.7-1.7-2.5-3.7-2.5-6
		c0-2.3,0.8-4.3,2.5-6c1.7-1.7,3.7-2.5,6-2.5c2.4,0,4.4,0.8,6.1,2.4l38.6,39.1c0.2,0.4,0.3,0.6,0.5,0.9c0.1,0.2,0.2,0.4,0.3,0.5
		c0,0.1,0.1,0.2,0.1,0.2c0,0,0.1,0,0.1,0.1l0.5,1.6v0.9c0.1,0.4,0.1,0.6,0.1,0.7l-0.1,0.7V48.2z"/>
</g>
</svg>
