<?xml version="1.0" encoding="utf-8"?>
<!-- Generator: Adobe Illustrator 22.1.0, SVG Export Plug-In . SVG Version: 6.00 Build 0)  -->
<svg version="1.1" id="Layer_1" xmlns="http://www.w3.org/2000/svg" xmlns:xlink="http://www.w3.org/1999/xlink" x="0px" y="0px"
	 viewBox="0 0 292 42.8" style="enable-background:new 0 0 292 42.8;" xml:space="preserve">
<style type="text/css">
	.st0{display:none;fill:#333333;}
	.st1{display:none;fill:#4B237A;}
	.st2{display:none;fill:#1A1A1A;}
	.st3{fill:#EE2A7B;}
	.st4{fill:#7F3F98;}
	.st5{fill:#00AEEF;}
	.st6{fill:#FF4200;}
	.st7{fill:#FF9803;}
	.st8{fill:#FF6D00;}
	.st9{fill:#FFFFFF;}
</style>
<g>
	<g>
		<path d="M78.2,36.9c0.4-0.3,0.8-0.2,1.1,0.1c0.3,0.3,0.3,0.7-0.2,1.1c-4.1,3.1-8.7,4.6-13.7,4.6c-6,0-11.2-2.1-15.4-6.3
			c-4.3-4.2-6.4-9.2-6.4-15.1c0-5.9,2.1-10.9,6.4-15.1C54.3,2.1,59.5,0,65.5,0c5.1,0,9.7,1.5,13.7,4.6c0.4,0.4,0.5,0.7,0.2,1.1
			c-0.4,0.4-0.8,0.5-1.1,0.1C74.6,3,70.3,1.6,65.5,1.6c-5.6,0-10.4,1.9-14.3,5.8s-6,8.5-6,14c0,5.5,2,10.2,6,14s8.8,5.8,14.3,5.8
			C70.3,41.2,74.5,39.8,78.2,36.9z"/>
		<path d="M109,42V22.4H85V42c0,0.2-0.1,0.4-0.2,0.5c-0.1,0.2-0.3,0.2-0.5,0.2c-0.5,0-0.8-0.3-0.8-0.8V1.4c0-0.5,0.3-0.8,0.8-0.8
			c0.2,0,0.4,0.1,0.5,0.2C84.9,1,85,1.2,85,1.4v19.5h24V1.4c0-0.5,0.2-0.8,0.8-0.8c0.5,0,0.8,0.3,0.8,0.8V42c0,0.5-0.3,0.8-0.8,0.8
			C109.2,42.8,109,42.5,109,42z"/>
		<path d="M127.4,14.7c3.4,0.3,6.3,1.7,8.6,4c2.7,2.7,4.1,6,4.1,9.9c0,3.9-1.4,7.2-4.1,10c-2.8,2.7-6.1,4.1-9.9,4.1H126
			c-3.9,0-7.2-1.4-9.9-4.1c-0.4-0.4-0.4-0.7,0-1.1s0.7-0.4,1.1,0c2.4,2.4,5.4,3.6,8.9,3.6c3.5,0,6.4-1.2,8.8-3.6
			c2.4-2.4,3.6-5.4,3.6-8.8s-1.2-6.4-3.6-8.9c-2.5-2.4-5.4-3.6-8.8-3.6c-0.2,0-0.5-0.2-0.8-0.5c-0.3-0.3-0.3-0.7,0.1-1.1l12.2-12.5
			h-18.6c-0.5,0-0.8-0.3-0.8-0.8c0-0.5,0.3-0.8,0.8-0.8h20.4c0.5,0,0.8,0.3,0.8,0.8c0,0.3-0.1,0.5-0.2,0.7L127.4,14.7z"/>
		<path d="M179.8,42V3.7l-15.4,21.4c-0.2,0.2-0.4,0.3-0.7,0.3h-0.1c-0.3,0-0.5-0.1-0.7-0.3L147.6,3.6V42c0,0.5-0.3,0.8-0.8,0.8
			c-0.5,0-0.8-0.3-0.8-0.8V1.4c0-0.2,0.1-0.4,0.2-0.5c0.2-0.2,0.3-0.2,0.5-0.2c0.2,0,0.5,0.1,0.8,0.3l16.1,22.4L179.9,1
			c0.2-0.2,0.4-0.3,0.7-0.3c0.5,0,0.8,0.3,0.8,0.8V42c0,0.5-0.3,0.8-0.8,0.8c-0.2,0-0.4-0.1-0.5-0.2C179.9,42.4,179.8,42.2,179.8,42
			z"/>
		<path d="M188.9,1.4c0-0.5,0.2-0.8,0.8-0.8s0.8,0.3,0.8,0.8V42c0,0.5-0.3,0.8-0.8,0.8s-0.8-0.3-0.8-0.8V1.4z"/>
		<path d="M231.1,36.9c0.4-0.3,0.8-0.2,1.1,0.1s0.3,0.7-0.2,1.1c-4.1,3.1-8.7,4.6-13.7,4.6c-6,0-11.2-2.1-15.4-6.3
			c-4.3-4.2-6.4-9.2-6.4-15.1c0-5.9,2.1-10.9,6.4-15.1c4.3-4.2,9.4-6.3,15.4-6.3c5.1,0,9.7,1.5,13.7,4.6c0.4,0.4,0.5,0.7,0.2,1.1
			c-0.4,0.4-0.8,0.5-1.1,0.1c-3.7-2.9-8-4.3-12.8-4.3c-5.6,0-10.4,1.9-14.3,5.8s-6,8.5-6,14c0,5.5,2,10.2,6,14s8.8,5.8,14.3,5.8
			C223.2,41.2,227.4,39.8,231.1,36.9z"/>
		<path d="M258.6,1c0.2-0.2,0.4-0.3,0.5-0.3c0.2,0,0.4,0.2,0.8,0.5c0,0.1,0.1,0.1,0.1,0.2v30.9h3.7c0.5,0,0.8,0.3,0.8,0.8
			c0,0.5-0.3,0.8-0.8,0.8H260V42c0,0.5-0.3,0.8-0.8,0.8c-0.2,0-0.4-0.1-0.5-0.2c-0.2-0.2-0.2-0.3-0.2-0.5v-8.2h-24.6
			c-0.3,0-0.5-0.1-0.7-0.4c-0.2-0.3-0.1-0.5,0.1-0.8L258.6,1z M235.4,32.3h23.1V3.7L235.4,32.3z"/>
		<path d="M291.2,42.8h-22.5c-0.5,0-0.8-0.3-0.8-0.8V1.4c0-0.5,0.2-0.8,0.8-0.8c0.5,0,0.8,0.3,0.8,0.8v39.9h21.7
			c0.5,0,0.8,0.3,0.8,0.8S291.7,42.8,291.2,42.8z"/>
	</g>
	<polygon class="st3" points="21,0.3 18,0.3 0,42.4 3,42.4 	"/>
	<polygon class="st4" points="43,0.3 40,0.3 22,42.4 25,42.4 	"/>
	<polygon class="st5" points="32,0.3 29,0.3 11,42.4 14,42.4 	"/>
</g>
</svg>
