<svg xmlns="http://www.w3.org/2000/svg" viewBox="0 0 354.4 299.29"><title>toj logo</title><path d="M263.72,185.87a91.61,91.61,0,0,1-6.51,7.83c4.87-19.22,10.37-44.75,14.87-61.44,4-1.23,12.08-4.21,11.66-8.44-.31-3.2-3.85-6.28-6.32-6-3.71.37-8,7.66-10.56,13.33-5.47,2.62-10.65,5-15.9,7.71-20.61,10.57-37.41,26.08-35.34,47.11.83,8.35,4.93,15.13,14,14.24,12-1.18,19-22.17,17.8-33.83-.55-5.56-3.19-7-5.56-6.74a4.91,4.91,0,0,0-1.72.48c.53,7.55-4.23,30-11.81,36.57-2.27-.92-3.46-3.41-3.79-6.81-.77-7.73,3.44-21.06,10.6-29.78,7.9-9.63,17.08-16.89,29.77-24.39-6.57,16.79-14.19,46.17-19.67,65.56-24.24,6.56-31.93,13-30.95,23.05.64,6.49,6.7,11.93,16.6,11,11.55-1.14,16.33-8.59,21.31-23.55,1.12-3.45,2.46-7.85,3.72-13,3.66-1.92,10.81-5.54,10.32-10.49A2.4,2.4,0,0,0,263.72,185.87Zm-32,45.22c-4.61-.27-7.62-4.35-8.06-8.88h-.11c-.68-6.91,8.65-10.54,20.43-16.7C241.41,214.11,237.75,226.55,231.74,231.09Z" style="fill:#fcee21"/><path d="M344,115.85c-7.36-7.11-16.23-8-21.36-5.9a1.49,1.49,0,0,0-.81,2,1.51,1.51,0,0,0,2,.81c4.39-1.84,12-.6,18.12,5.28,7.1,6.87,16.71,24.51,1.25,65.54a1.66,1.66,0,0,0-.09.37c-3,7-8,14.46-12.89,18.84,3.32-12.82,5.8-23.48,6.74-27.73,2.23-10.12,5.14-19.67,4.87-22.45-.19-1.86-2.52-2.26-5.61-1.95a23.35,23.35,0,0,0-2.77.38c-4.78,21.29-14.87,47.8-21.13,48.73-1.36-5.39,10.28-33.09,9.59-40.1-.57-5.77-4-7.52-6.24-7.3-1.17.12-2.39.36-3.66.61-1.54.21-3,.36-4.46.5-2.06.21-4.12.41-5.89.48-2.55-4.75-8.22-8.45-12.86-8-2.48.25-5,3.51-4.81,5.16.3,3,4.05,5.12,9.51,5.62,2,15.22-8.18,46.94-13,48.77a7.91,7.91,0,0,1-2.29-5.19c-.77-7.84,4.66-29.82,10.2-41.3a5.51,5.51,0,0,0-4.08-1.27,9,9,0,0,0-6.51,4.81c-5.47,10-10.12,25.15-9.18,34.64.83,8.46,5.5,12.47,12.1,11.82,14.33-1.41,23.65-36.79,22.26-50.92a3.31,3.31,0,0,0-.21-1,19.26,19.26,0,0,0,6.51.5,8.44,8.44,0,0,0,4.3-1.43c.05,7.86-11.36,32.31-10.35,42.53.51,5.16,5.75,6.52,9.05,6.19,5.46-.54,9.92-9.2,13.79-20.62-1.76,6.42-3.91,15.27-6.09,23.82-3.5,1.38-6.85,2.34-9.26,3.2-13.74,4.27-17.22,11.17-16.6,17.47s6.27,11.87,15.55,11c5.67-.56,12.4-8.31,15.6-19.24,1.32-4.51,2.54-9,3.69-13.28,11.69-6.32,17.52-20.47,18.26-26C361.44,141,351.4,123,344,115.85ZM311.6,234.15c-4.65.36-7.82-3.29-8.24-7.51-.59-6,4.1-9,11.37-12.47,1.29-.65,2.78-1.32,4.17-2.08C316.19,222.66,313.57,232,311.6,234.15Z" style="fill:#fcee21"/><path d="M56.58,155c1.25,0,2.6-.05,3.94-.18,11.24-1.11,13-6.28,12.63-10.2a3.68,3.68,0,0,0-1.85-2.94c-1.22,1.37-3.94,2.27-7.86,2.65-7.11.7-27.19.91-33.58,1.54-19.6,1.93-29.52,27-27.77,44.7.94,10.63,6.1,18.56,15.69,17.62,12.68-1.26,18.51-21.41,17.21-34.5-.65-6.6-3.21-11.45-7.54-11a4,4,0,0,0-3.06,1.65,16.24,16.24,0,0,1,.67,3.68c.9,9.08-.79,30-7.64,36.58-3.19-.73-4.86-4.94-5.43-10.72-1.44-14.64,4.44-39.48,12.58-43.51,9.29.23,17.15,2.89,25.19,4.08-4.13,15.19-12.54,50.28-19.13,72.17-3.79,12.24-7,19.33-13.8,22.7-3.29-.71-6.45-4.25-7-10.13-.72-7.22,3-12.06,7.43-14.38,0-1.66-1.34-4.13-5.57-3.72-6.5.65-12.54,7-11.55,17,.93,9.49,7.18,15.85,17.39,14.84,12.07-1.19,17.38-8.58,22.44-23.77,5.47-16.36,12.81-49.57,17.88-70C58.13,158,57.56,156.43,56.58,155Z" style="fill:#39b54a"/><path d="M123,207.25c-2.37,5.54-5.86,11.4-10.21,13.71.78-4.76,4.27-14.79,6.95-24.53,2.52-9.31,4.65-18.37,4.39-21-.37-3.81-3.7-3.8-7.92-3.28-.7,2.47-1.45,5.35-2.31,8.25-1.09-5.72-5.73-8.5-9.34-8.14-7,.69-11.69,12.4-15.25,24.93-.68,2.35-1.28,4.76-1.78,7.15-5.13,10.23-11.73,18.94-19.31,20.76-2.89-.76-4.34-2.8-4.66-6.11-.1-.92-.09-2-.1-3.11a9.8,9.8,0,0,0,2.93.13c12.68-1.25,21.13-23.22,20.28-31.89-.74-7.52-6.77-9.53-12-9-4.74.46-7.93,3-10.31,6.32-7.15,9.87-11.34,27.57-10.31,38,.7,7.11,7.66,11.21,15.71,10.42h.1c5.92-.58,11.69-7.91,16.35-16.57a37.82,37.82,0,0,0,0,6.63c.46,4.75,5.45,7.79,9.06,7.44,5-.49,8.71-9.92,13.27-21.72-1.37,6.18-3.2,11.87-3,14.45.32,3.2,4,5.86,6.59,5.6,6-.59,12.87-13.14,12.44-17.47C124.42,207.21,123.78,207.07,123,207.25ZM78.19,178.76a3,3,0,0,1,1,2.3c.74,7.53-6.26,29.46-15.39,31.92C65.4,200,73.38,179.55,78.19,178.76Zm29.52,20.52c-4.21,11.24-8.95,21.18-12.49,23.3-.79-2.73.37-12.11,3.18-21.55,5.31-18,7.48-22.4,9.54-22.6,1.75-.17,3.61,1.73,3.85,5.24C112.17,187.49,109.65,193.67,107.71,199.28Z" style="fill:#39b54a"/><path d="M134.76,23.07a1.61,1.61,0,0,0,2,1.23l4.36-1c6.32-1.5,8.82-6.64,7.66-11.54-1.21-5.1-5.75-8.48-12.05-7l-4.36,1a1.62,1.62,0,0,0-1.19,2Zm2.51-15.39c4.12-1,7.17,1.12,8.06,4.85s-1,6.89-5.05,7.85l-2.56.61-3-12.7Z" style="fill:#fff"/><path d="M93.69,26.32l4.09-2.38,7.29,12.55A1.68,1.68,0,0,0,108,34.8l-7.29-12.55,4.12-2.39a1.5,1.5,0,0,0-1.49-2.6L92.16,23.74a1.45,1.45,0,0,0-.5,2A1.44,1.44,0,0,0,93.69,26.32Z" style="fill:#fff"/><path d="M161.19,66.33a1.5,1.5,0,0,0,1.5-1.5c0-5.37,2.85-6.9,6.15-8.66s6.85-3.67,6.85-9.34a1.5,1.5,0,1,0-3,0c0,3.87-2.21,5.06-5.26,6.69-3.45,1.84-7.74,4.14-7.74,11.31A1.5,1.5,0,0,0,161.19,66.33Z" style="fill:#fff"/><path d="M289.12,90.9l3.74,7.93a1.48,1.48,0,0,0,2,.72,1.44,1.44,0,0,0,.7-2l-3-6.36,4.69-2.2,2.52,5.34a1.43,1.43,0,1,0,2.58-1.22l-2.52-5.34,4.54-2.14,2.85,6.05a1.5,1.5,0,1,0,2.71-1.28l-3.59-7.62a1.62,1.62,0,0,0-2.22-.75l-14.21,6.7A1.62,1.62,0,0,0,289.12,90.9Z" style="fill:#fff"/><path d="M118.16,29.4a1.62,1.62,0,0,0,2.13.92L128.41,27a1.49,1.49,0,0,0,.83-2,1.46,1.46,0,0,0-2-.81l-6.51,2.64-2-4.8,5.48-2.22a1.43,1.43,0,1,0-1.07-2.65l-5.48,2.22-1.88-4.64,6.2-2.52A1.49,1.49,0,1,0,121,9.51l-7.81,3.16a1.63,1.63,0,0,0-.88,2.17Z" style="fill:#fff"/><path d="M251.63,46l6.13,4.88a1.5,1.5,0,1,0,1.87-2.34l-4.79-3.82,9-11.34a1.68,1.68,0,1,0-2.63-2.1l-9.86,12.37A1.64,1.64,0,0,0,251.63,46Z" style="fill:#fff"/><path d="M148.19,68.83c0,15,6,45,9,45h24c1,0,2.3-3.26,3.62-8.16,4.08-3.58,12.38-11.69,12.38-18.34s-4.7-11.18-7.2-13.18c.13-1.91.2-3.7.2-5.32Zm46,18.5c0,3.91-4.16,9.08-8.09,13a199.33,199.33,0,0,0,3.58-22.46C191.74,79.92,194.19,83.2,194.19,87.33Z" style="fill:#fff"/><path d="M208.81,7.72l4.53,1.37L209.16,23a1.68,1.68,0,1,0,3.22,1l4.18-13.89,4.56,1.38a1.44,1.44,0,0,0,1.82-1A1.43,1.43,0,0,0,222,8.57L209.65,4.84a1.44,1.44,0,0,0-1.83,1A1.43,1.43,0,0,0,208.81,7.72Z" style="fill:#fff"/><path d="M168.59,17.87a2,2,0,0,0,1.89,1.59A2,2,0,0,0,172.37,18l4.16-12.38,3.64,12.58a1.93,1.93,0,0,0,3.78.11L189.4,3.13a3,3,0,0,0,.22-.89A1.59,1.59,0,0,0,188,.6a1.6,1.6,0,0,0-1.63,1.19c-1.46,4.19-2.83,8.47-4.18,12.8L178.57,1.83A1.87,1.87,0,0,0,176.79.3a1.89,1.89,0,0,0-1.89,1.44L170.65,14.2c-1.15-4.35-2.27-8.49-3.52-12.92A1.68,1.68,0,0,0,165.51,0a1.66,1.66,0,0,0-1.73,1.66,2.77,2.77,0,0,0,.18.9Z" style="fill:#fff"/><path d="M281.54,61.35a9.73,9.73,0,1,0-13.8-.4A9.58,9.58,0,0,0,281.54,61.35ZM270.61,49.67c3.11-2.91,7-2.42,9.21,0s2.43,6.24-.68,9.15-6.93,2.46-9.17.07S267.5,52.58,270.61,49.67Z" style="fill:#fff"/><path d="M223.92,29.85a1.65,1.65,0,0,0,2.25-.77L229,23.26l8.31,4-2.84,5.82a1.68,1.68,0,0,0,3,1.47l7-14.35a1.68,1.68,0,1,0-3-1.47l-2.84,5.84-8.31-4,2.84-5.85a1.62,1.62,0,0,0-.78-2.24,1.65,1.65,0,0,0-2.24.77l-7,14.36A1.65,1.65,0,0,0,223.92,29.85Z" style="fill:#fff"/><path d="M172,66a1.59,1.59,0,0,0,.73-.19l1.12-.61c3.21-1.72,6.85-3.67,6.85-9.34a1.5,1.5,0,1,0-3,0c0,3.87-2.21,5.06-5.26,6.69l-1.17.64A1.5,1.5,0,0,0,172,66Z" style="fill:#fff"/><path d="M281.32,77.89a2.15,2.15,0,0,0,2.39.83L300,75.44a3,3,0,0,0,.86-.33,1.54,1.54,0,0,0,.4-2.19,1.61,1.61,0,0,0-2-.64c-4.51,1-9.38,2-14.18,3.16q4.37-6,8.49-12a1.7,1.7,0,0,0,.07-2,1.65,1.65,0,0,0-2.31-.45,2.7,2.7,0,0,0-.67.68l-9.19,13.64A2.11,2.11,0,0,0,281.32,77.89Z" style="fill:#fff"/><path d="M195.81,21.6a1.64,1.64,0,0,0,1.95-1.35l2.81-15.71a1.63,1.63,0,0,0-1.36-1.95,1.65,1.65,0,0,0-2,1.36l-2.8,15.7A1.66,1.66,0,0,0,195.81,21.6Z" style="fill:#fff"/><path d="M188.9,189.5c7.84-.77,13.4-2.46,13.18-4.63a1.65,1.65,0,0,0-.4-.9l-12.16,1.2c3.06-11.13,7-24,10.42-34.76,2.47-7.64,5.34-15.52,5.15-17.48-.22-2.17-4.07-3.24-8.19-2.73-2.09,5.55-5.75,16.34-9.83,29.59-2.68,4.69-6.88,6.73-11.74,7.21-.72.07-1.45,0-2.17.11-2.72-4.32-8.86-7.46-13.19-7-2.37.23-4.78,3.28-4.5,6.17.2,2,4.08,3.34,9.64,3.73,1.77,14.82-7.65,41.78-12.9,47.61-1.31-.6-2.14-1.56-2.4-4.24-.86-8.77,4.62-30.24,10.48-41.54-.63-1.08-1.72-1.6-3.88-1.39-6.5.65-9.49,8.33-12.26,16.2-3,8.11-4.58,16.91-4,23.2.84,8.46,5.81,12.44,12.41,11.79,3.51-.34,8-2.86,11.22-8.71,6.57-11.58,11.6-33.42,10.66-42.91l2.37-.23a17.7,17.7,0,0,0,8-2.63c-1.83,6.12-3.7,12.61-5.51,19.26l-3.1.3c-1.85.18-2.14,1.46-1.85,2.37,1.38.18,2.65.47,4.12.53-5.6,20.34-13.09,47.84-12.35,55.36.53,5.37,6.22,8.14,10.65,7.7,9-.88,18.74-39.12,17.34-53.35C193.5,192.9,192.1,190.23,188.9,189.5Zm-12.64,58.73c-4-5.12,4.89-30.68,11.59-56.75.59.78.84,2.21,1,4.27C190.66,211.61,181,245.47,176.26,248.23Z" style="fill:#fff"/><path d="M236.79,282.75l-11.3-11.69a2.5,2.5,0,0,0-2.82-.74,2.47,2.47,0,0,0-1.5,2.54l.19,16.32a2.38,2.38,0,0,0,.16.81,1.52,1.52,0,0,0,2,.86,1.61,1.61,0,0,0,1-1.59l-.1-3.75,7.63-3.16,2.57,2.69a1.57,1.57,0,0,0,2.67-1.59A2.14,2.14,0,0,0,236.79,282.75Zm-12.44-.27-.2-8.28.08,0,5.73,6Z" style="fill:#fff"/><path d="M213.32,285.33a1.53,1.53,0,0,0-1.86-1.18l-4.22,1a1.43,1.43,0,0,0-1.11,1.75,1.4,1.4,0,0,0,1.76,1l3-.7.81,3.43a9.14,9.14,0,0,1-3.78,1.81,6.8,6.8,0,0,1-3-13.28,8.51,8.51,0,0,1,3.49-.1,3.56,3.56,0,0,0,1.41,0,1.37,1.37,0,0,0,1-1.69c-.17-.73-.7-1.15-1.73-1.37a11.9,11.9,0,0,0-4.84.21c-5.78,1.36-9.09,6.36-7.8,11.87a9.61,9.61,0,0,0,12,7.29,14,14,0,0,0,5.41-2.45,2,2,0,0,0,.8-2.32Z" style="fill:#fff"/><path d="M189.93,295.51l-7,.57-.43-5.16,5.89-.48a1.43,1.43,0,1,0-.23-2.85l-5.89.48-.42-5,6.67-.55a1.5,1.5,0,1,0-.24-3l-8.4.7a1.61,1.61,0,0,0-1.48,1.8l1.29,15.66a1.61,1.61,0,0,0,1.75,1.51l8.74-.72a1.49,1.49,0,0,0,1.38-1.63A1.45,1.45,0,0,0,189.93,295.51Z" style="fill:#fff"/><path d="M244.86,268.14c-2.14.3-4.09.74-4.94-.67-.6-1-.25-2.4,1.36-3.36a7,7,0,0,1,2.73-.88,3.3,3.3,0,0,0,1.17-.34,1.42,1.42,0,0,0,.42-2,1.88,1.88,0,0,0-1.9-.72,8.55,8.55,0,0,0-4,1.36c-3.3,2-4.17,5.1-2.56,7.79s4,2.72,7.37,2.23c2.15-.28,3.89-.63,4.72.76.74,1.23.21,2.69-1.33,3.61a6.58,6.58,0,0,1-3.8.9,2.44,2.44,0,0,0-1.53.22,1.48,1.48,0,0,0-.52,2,2,2,0,0,0,1.74.89,9.56,9.56,0,0,0,5.5-1.39c3.1-1.86,4.54-5.07,2.71-8.14C250.37,267.69,247.68,267.73,244.86,268.14Z" style="fill:#fff"/><path d="M171.52,280.41c-.79,0-1.28.26-1.7,1.19-1.92,4.2-4,8.7-6,13.21q-2.13-7.06-4.45-14a1.68,1.68,0,0,0-1.52-1.24,1.63,1.63,0,0,0-1.75,1.57,2.51,2.51,0,0,0,.14.94l5.33,15.56a2.13,2.13,0,0,0,2,1.63,2.16,2.16,0,0,0,2.1-1.41l7.17-14.94a2.51,2.51,0,0,0,.25-.88A1.54,1.54,0,0,0,171.52,280.41Z" style="fill:#fff"/><path d="M101.14,258.91a1.64,1.64,0,0,0-2.32.54l-8.38,13.41a1.62,1.62,0,0,0,.51,2.3l6.64,4.16a1.48,1.48,0,0,0,2.09-.48,1.47,1.47,0,0,0-.5-2.06L94,273.53l7.69-12.3A1.63,1.63,0,0,0,101.14,258.91Z" style="fill:#fff"/><path d="M44.2,93.82a9.45,9.45,0,0,0,13.17-4.38,9,9,0,0,0,1-5.36,1.69,1.69,0,0,0-.87-1.32,1.35,1.35,0,0,0-1.88.62,3.11,3.11,0,0,0-.18,1.41,8,8,0,0,1-.84,3.28c-1.77,3.53-5.53,4.33-8.88,2.65s-5-5.26-3.23-8.72a7.06,7.06,0,0,1,2.06-2.47,2.64,2.64,0,0,0,.9-.92,1.35,1.35,0,0,0-.6-1.87,1.9,1.9,0,0,0-2.06.37A9.85,9.85,0,0,0,44.2,93.82Z" style="fill:#fff"/><path d="M48.44,69.47l13,9.18a1.68,1.68,0,1,0,1.94-2.74l-4.59-3.26,1.38-1.94,8.38-.48a1.7,1.7,0,0,0,1.42-.7,1.63,1.63,0,0,0-.4-2.28,1.7,1.7,0,0,0-1.26-.31l-6.65.57a5.76,5.76,0,0,0-2.33-6c-2.61-1.85-6.11-1.52-8.63,2l-2.58,3.63A1.66,1.66,0,0,0,48.44,69.47Zm4.52-4c1.18-1.66,2.82-2.18,4.47-1s1.66,2.83.43,4.57l-1.42,2-4.94-3.5Z" style="fill:#fff"/><path d="M71.44,63.68a2.46,2.46,0,0,0,.47.68,1.53,1.53,0,0,0,2.2,0,1.6,1.6,0,0,0,.26-1.84l-1.58-3.4,5.74-5.94L82,54.6a1.51,1.51,0,0,0,1.87-.33,1.54,1.54,0,0,0,0-2.2,2.38,2.38,0,0,0-.74-.44L68,45.42a2.5,2.5,0,0,0-2.89.44,2.46,2.46,0,0,0-.36,2.92ZM68.09,48.76,75.74,52l-4.23,4.37L68,48.82Z" style="fill:#fff"/><path d="M119.79,269.07a2.45,2.45,0,0,0-2.86.65l-11.71,11.37a2.36,2.36,0,0,0-.49.68,1.53,1.53,0,0,0,.77,2.06,1.61,1.61,0,0,0,1.83-.39l2.65-2.65,7.55,3.36-.19,3.72a1.58,1.58,0,0,0,3,.84,2.37,2.37,0,0,0,.16-.85l.7-16.24A2.49,2.49,0,0,0,119.79,269.07Zm-2.11,12.05-5.55-2.47,5.88-5.84.07,0Z" style="fill:#fff"/><path d="M87.91,48.61a1.68,1.68,0,1,0,2.65-2.07l-3.77-4.83,4.31-3.36A1.47,1.47,0,1,0,89.29,36L85,39.39l-3.34-4.28,4.93-3.84a1.5,1.5,0,1,0-1.84-2.36l-6.3,4.9a1.62,1.62,0,0,0-.25,2.32Z" style="fill:#fff"/><path d="M137.89,275.4c-3.69-1-6.56.5-7.4,3.51s.81,4.8,3.45,6.87c1.69,1.37,3.14,2.39,2.71,4-.39,1.37-1.81,2-3.54,1.51a6.62,6.62,0,0,1-3.27-2.14,2.45,2.45,0,0,0-1.21-.95,1.48,1.48,0,0,0-1.83,1,2,2,0,0,0,.55,1.87,9.53,9.53,0,0,0,4.8,3c3.47,1,6.79-.19,7.76-3.65.87-3.1-1-5-3.25-6.78-1.69-1.34-3.36-2.45-2.91-4,.32-1.13,1.56-1.83,3.36-1.32a7,7,0,0,1,2.53,1.37,3.23,3.23,0,0,0,1.05.61,1.42,1.42,0,0,0,1.72-1.06,1.86,1.86,0,0,0-.79-1.87A8.52,8.52,0,0,0,137.89,275.4Z" style="fill:#fff"/></svg>